# xmcd
#
# Track frame offsets:
#	150
#	21279
#	33976
#	46000
#	61174
#
# Disc length: 1096 seconds
#
# Revision: 1
# Processed by: cddbd v1.5.2PL0 Copyright (c) Steve Scherf et al.
# Submitted via: audiograbber 1.83.01
#
DISCID=33044605
DTITLE=Sick Note  - Feeding ducks
DYEAR=2011
DGENRE=Lokaal
TTITLE0=Sick Note  - Different world
TTITLE1=Sick Note  - Voices
TTITLE2=Sick Note  - Feeding dukes
TTITLE3=Sick Note  - Never knew
TTITLE4=Sick Note  - Silly things
EXTD=
EXTT0=
EXTT1=
EXTT2=
EXTT3=
EXTT4=
PLAYORDER=
